<svg width="1730" height="631" viewBox="0 0 1730 631" fill="none" xmlns="http://www.w3.org/2000/svg">
<g filter="url(#filter0_d_2507_508)">
<g opacity="0.4" clip-path="url(#clip0_2507_508)">
<path d="M1597.09 41C1525.73 41 1468 98.7268 1468 170.089C1468 241.273 1525.73 299.177 1597.09 299.177C1668.27 299.177 1726.18 241.45 1726.18 170.089C1726 98.7268 1668.27 41 1597.09 41ZM1597.09 290.855C1530.33 290.855 1476.32 236.846 1476.32 170.089C1476.32 103.331 1530.33 49.3226 1597.09 49.3226C1663.85 49.3226 1717.85 103.331 1717.85 170.089C1717.85 236.669 1663.67 290.855 1597.09 290.855Z" fill="white"/>
<path d="M1597.09 68.8008C1541.31 68.8008 1495.98 114.132 1495.98 169.911C1495.98 225.69 1541.31 271.022 1597.09 271.022C1652.87 271.022 1698.2 225.867 1698.2 170.088C1698.2 114.132 1652.87 68.8008 1597.09 68.8008ZM1597.09 255.616C1549.81 255.616 1511.38 217.191 1511.38 169.911C1511.38 122.632 1549.81 84.2064 1597.09 84.2064C1644.37 84.2064 1682.79 122.632 1682.79 169.911C1682.79 217.191 1644.37 255.616 1597.09 255.616Z" fill="white"/>
</g>
<g clip-path="url(#clip1_2507_508)">
<path d="M276.08 548.86C276.08 550.025 275.206 550.898 274.04 550.898C272.874 550.898 272 550.025 272 548.86C272 547.696 272.874 546.822 274.04 546.822C275.206 546.822 276.08 547.793 276.08 548.86Z" fill="white"/>
<path d="M293.469 548.86C293.469 550.025 292.595 550.898 291.429 550.898C290.263 550.898 289.389 550.025 289.389 548.86C289.389 547.696 290.263 546.822 291.429 546.822C292.498 546.822 293.469 547.793 293.469 548.86Z" fill="white"/>
<path d="M310.762 548.86C310.762 550.025 309.887 550.898 308.722 550.898C307.556 550.898 306.682 550.025 306.682 548.86C306.682 547.696 307.556 546.822 308.722 546.822C309.887 546.822 310.762 547.793 310.762 548.86Z" fill="white"/>
<path d="M328.151 548.86C328.151 550.025 327.277 550.898 326.111 550.898C324.945 550.898 324.071 550.025 324.071 548.86C324.071 547.696 324.945 546.822 326.111 546.822C327.277 546.822 328.151 547.793 328.151 548.86Z" fill="white"/>
<path d="M345.54 548.86C345.54 550.025 344.666 550.898 343.5 550.898C342.334 550.898 341.46 550.025 341.46 548.86C341.46 547.696 342.334 546.822 343.5 546.822C344.569 546.822 345.54 547.793 345.54 548.86Z" fill="white"/>
<path d="M362.929 548.86C362.929 550.025 362.055 550.898 360.889 550.898C359.723 550.898 358.849 550.025 358.849 548.86C358.849 547.696 359.723 546.822 360.889 546.822C362.055 546.822 362.929 547.793 362.929 548.86Z" fill="white"/>
<path d="M380.222 548.86C380.222 550.025 379.347 550.898 378.182 550.898C377.016 550.898 376.142 550.025 376.142 548.86C376.142 547.696 377.016 546.822 378.182 546.822C379.347 546.822 380.222 547.793 380.222 548.86Z" fill="white"/>
<path d="M397.611 548.86C397.611 550.025 396.737 550.898 395.571 550.898C394.405 550.898 393.531 550.025 393.531 548.86C393.531 547.696 394.405 546.822 395.571 546.822C396.737 546.822 397.611 547.793 397.611 548.86Z" fill="white"/>
<path d="M415 548.86C415 550.025 414.126 550.898 412.96 550.898C411.794 550.898 410.92 550.025 410.92 548.86C410.92 547.696 411.794 546.822 412.96 546.822C414.029 546.822 415 547.793 415 548.86Z" fill="white"/>
<path d="M276.08 563.319C276.08 564.484 275.206 565.357 274.04 565.357C272.874 565.357 272 564.484 272 563.319C272 562.155 272.874 561.281 274.04 561.281C275.206 561.281 276.08 562.155 276.08 563.319Z" fill="white"/>
<path d="M293.469 563.319C293.469 564.484 292.595 565.357 291.429 565.357C290.263 565.357 289.389 564.484 289.389 563.319C289.389 562.155 290.263 561.281 291.429 561.281C292.498 561.281 293.469 562.155 293.469 563.319Z" fill="white"/>
<path d="M310.762 563.319C310.762 564.484 309.887 565.357 308.722 565.357C307.556 565.357 306.682 564.484 306.682 563.319C306.682 562.155 307.556 561.281 308.722 561.281C309.887 561.281 310.762 562.155 310.762 563.319Z" fill="white"/>
<path d="M328.151 563.319C328.151 564.484 327.277 565.357 326.111 565.357C324.945 565.357 324.071 564.484 324.071 563.319C324.071 562.155 324.945 561.281 326.111 561.281C327.277 561.281 328.151 562.155 328.151 563.319Z" fill="white"/>
<path d="M345.54 563.319C345.54 564.484 344.666 565.357 343.5 565.357C342.334 565.357 341.46 564.484 341.46 563.319C341.46 562.155 342.334 561.281 343.5 561.281C344.569 561.281 345.54 562.155 345.54 563.319Z" fill="white"/>
<path d="M362.929 563.319C362.929 564.484 362.055 565.357 360.889 565.357C359.723 565.357 358.849 564.484 358.849 563.319C358.849 562.155 359.723 561.281 360.889 561.281C362.055 561.281 362.929 562.155 362.929 563.319Z" fill="white"/>
<path d="M380.222 563.319C380.222 564.484 379.347 565.357 378.182 565.357C377.016 565.357 376.142 564.484 376.142 563.319C376.142 562.155 377.016 561.281 378.182 561.281C379.347 561.281 380.222 562.155 380.222 563.319Z" fill="white"/>
<path d="M397.611 563.319C397.611 564.484 396.737 565.357 395.571 565.357C394.405 565.357 393.531 564.484 393.531 563.319C393.531 562.155 394.405 561.281 395.571 561.281C396.737 561.281 397.611 562.155 397.611 563.319Z" fill="white"/>
<path d="M415 563.319C415 564.484 414.126 565.357 412.96 565.357C411.794 565.357 410.92 564.484 410.92 563.319C410.92 562.155 411.794 561.281 412.96 561.281C414.029 561.281 415 562.155 415 563.319Z" fill="white"/>
<path d="M276.08 520.038C276.08 521.202 275.206 522.076 274.04 522.076C272.874 522.076 272 521.202 272 520.038C272 518.873 272.874 518 274.04 518C275.206 518 276.08 518.873 276.08 520.038Z" fill="white"/>
<path d="M293.469 520.038C293.469 521.202 292.595 522.076 291.429 522.076C290.263 522.076 289.389 521.202 289.389 520.038C289.389 518.873 290.263 518 291.429 518C292.498 518 293.469 518.873 293.469 520.038Z" fill="white"/>
<path d="M310.762 520.038C310.762 521.202 309.887 522.076 308.722 522.076C307.556 522.076 306.682 521.202 306.682 520.038C306.682 518.873 307.653 518 308.722 518C309.887 518 310.762 518.873 310.762 520.038Z" fill="white"/>
<path d="M328.151 520.038C328.151 521.202 327.277 522.076 326.111 522.076C324.945 522.076 324.071 521.202 324.071 520.038C324.071 518.873 325.042 518 326.111 518C327.179 518 328.151 518.873 328.151 520.038Z" fill="white"/>
<path d="M345.54 520.038C345.54 521.202 344.666 522.076 343.5 522.076C342.334 522.076 341.46 521.202 341.46 520.038C341.46 518.873 342.334 518 343.5 518C344.569 518 345.54 518.873 345.54 520.038Z" fill="white"/>
<path d="M362.929 520.038C362.929 521.202 362.055 522.076 360.889 522.076C359.723 522.076 358.849 521.202 358.849 520.038C358.849 518.873 359.723 518 360.889 518C362.055 518 362.929 518.873 362.929 520.038Z" fill="white"/>
<path d="M380.222 520.038C380.222 521.202 379.347 522.076 378.182 522.076C377.016 522.076 376.142 521.202 376.142 520.038C376.142 518.873 377.016 518 378.182 518C379.347 518 380.222 518.873 380.222 520.038Z" fill="white"/>
<path d="M397.611 520.038C397.611 521.202 396.737 522.076 395.571 522.076C394.405 522.076 393.531 521.202 393.531 520.038C393.531 518.873 394.405 518 395.571 518C396.737 518 397.611 518.873 397.611 520.038Z" fill="white"/>
<path d="M415 520.038C415 521.202 414.126 522.076 412.96 522.076C411.794 522.076 410.92 521.202 410.92 520.038C410.92 518.873 411.794 518 412.96 518C414.029 518 415 518.873 415 520.038Z" fill="white"/>
<path d="M276.08 534.497C276.08 535.661 275.206 536.535 274.04 536.535C272.874 536.535 272 535.564 272 534.497C272 533.332 272.874 532.459 274.04 532.459C275.206 532.459 276.08 533.332 276.08 534.497Z" fill="white"/>
<path d="M293.469 534.497C293.469 535.661 292.595 536.535 291.429 536.535C290.263 536.535 289.389 535.661 289.389 534.497C289.389 533.332 290.263 532.459 291.429 532.459C292.498 532.459 293.469 533.332 293.469 534.497Z" fill="white"/>
<path d="M310.762 534.497C310.762 535.661 309.887 536.535 308.722 536.535C307.556 536.535 306.682 535.661 306.682 534.497C306.682 533.332 307.556 532.459 308.722 532.459C309.887 532.459 310.762 533.332 310.762 534.497Z" fill="white"/>
<path d="M328.151 534.497C328.151 535.661 327.277 536.535 326.111 536.535C324.945 536.535 324.071 535.661 324.071 534.497C324.071 533.332 324.945 532.459 326.111 532.459C327.277 532.459 328.151 533.332 328.151 534.497Z" fill="white"/>
<path d="M345.54 534.497C345.54 535.661 344.666 536.535 343.5 536.535C342.334 536.535 341.46 535.661 341.46 534.497C341.46 533.332 342.334 532.459 343.5 532.459C344.569 532.459 345.54 533.332 345.54 534.497Z" fill="white"/>
<path d="M362.929 534.497C362.929 535.661 362.055 536.535 360.889 536.535C359.723 536.535 358.849 535.661 358.849 534.497C358.849 533.332 359.723 532.459 360.889 532.459C362.055 532.459 362.929 533.332 362.929 534.497Z" fill="white"/>
<path d="M380.222 534.497C380.222 535.661 379.347 536.535 378.182 536.535C377.016 536.535 376.142 535.661 376.142 534.497C376.142 533.332 377.016 532.459 378.182 532.459C379.347 532.459 380.222 533.332 380.222 534.497Z" fill="white"/>
<path d="M397.611 534.497C397.611 535.661 396.737 536.535 395.571 536.535C394.405 536.535 393.531 535.661 393.531 534.497C393.531 533.332 394.405 532.459 395.571 532.459C396.737 532.459 397.611 533.332 397.611 534.497Z" fill="white"/>
<path d="M415 534.497C415 535.661 414.126 536.535 412.96 536.535C411.794 536.535 410.92 535.661 410.92 534.497C410.92 533.332 411.794 532.459 412.96 532.459C414.029 532.459 415 533.332 415 534.497Z" fill="white"/>
<path d="M276.08 577.68C276.08 578.845 275.206 579.718 274.04 579.718C272.874 579.718 272 578.845 272 577.68C272 576.516 272.874 575.643 274.04 575.643C275.206 575.643 276.08 576.613 276.08 577.68Z" fill="white"/>
<path d="M293.469 577.68C293.469 578.845 292.595 579.718 291.429 579.718C290.263 579.718 289.389 578.845 289.389 577.68C289.389 576.516 290.263 575.643 291.429 575.643C292.498 575.643 293.469 576.613 293.469 577.68Z" fill="white"/>
<path d="M310.762 577.68C310.762 578.845 309.887 579.718 308.722 579.718C307.556 579.718 306.682 578.845 306.682 577.68C306.682 576.516 307.556 575.643 308.722 575.643C309.887 575.643 310.762 576.613 310.762 577.68Z" fill="white"/>
<path d="M328.151 577.68C328.151 578.845 327.277 579.718 326.111 579.718C324.945 579.718 324.071 578.845 324.071 577.68C324.071 576.516 324.945 575.643 326.111 575.643C327.277 575.643 328.151 576.613 328.151 577.68Z" fill="white"/>
<path d="M345.54 577.68C345.54 578.845 344.666 579.718 343.5 579.718C342.334 579.718 341.46 578.845 341.46 577.68C341.46 576.516 342.334 575.643 343.5 575.643C344.569 575.643 345.54 576.613 345.54 577.68Z" fill="white"/>
<path d="M362.929 577.68C362.929 578.845 362.055 579.718 360.889 579.718C359.723 579.718 358.849 578.845 358.849 577.68C358.849 576.516 359.723 575.643 360.889 575.643C362.055 575.643 362.929 576.613 362.929 577.68Z" fill="white"/>
<path d="M380.222 577.68C380.222 578.845 379.347 579.718 378.182 579.718C377.016 579.718 376.142 578.845 376.142 577.68C376.142 576.516 377.016 575.643 378.182 575.643C379.347 575.643 380.222 576.613 380.222 577.68Z" fill="white"/>
<path d="M397.611 577.68C397.611 578.845 396.737 579.718 395.571 579.718C394.405 579.718 393.531 578.845 393.531 577.68C393.531 576.516 394.405 575.643 395.571 575.643C396.737 575.643 397.611 576.613 397.611 577.68Z" fill="white"/>
<path d="M415 577.68C415 578.845 414.126 579.718 412.96 579.718C411.794 579.718 410.92 578.845 410.92 577.68C410.92 576.516 411.794 575.643 412.96 575.643C414.029 575.643 415 576.613 415 577.68Z" fill="white"/>
<path d="M276.08 592.139C276.08 593.304 275.206 594.177 274.04 594.177C272.874 594.177 272 593.304 272 592.139C272 590.975 272.874 590.102 274.04 590.102C275.206 590.102 276.08 590.975 276.08 592.139Z" fill="white"/>
<path d="M293.469 592.139C293.469 593.304 292.595 594.177 291.429 594.177C290.263 594.177 289.389 593.304 289.389 592.139C289.389 590.975 290.263 590.102 291.429 590.102C292.498 590.102 293.469 590.975 293.469 592.139Z" fill="white"/>
<path d="M310.762 592.139C310.762 593.304 309.887 594.177 308.722 594.177C307.556 594.177 306.682 593.304 306.682 592.139C306.682 590.975 307.556 590.102 308.722 590.102C309.887 590.102 310.762 590.975 310.762 592.139Z" fill="white"/>
<path d="M326.111 594.177C327.238 594.177 328.151 593.265 328.151 592.139C328.151 591.014 327.238 590.102 326.111 590.102C324.984 590.102 324.071 591.014 324.071 592.139C324.071 593.265 324.984 594.177 326.111 594.177Z" fill="white"/>
<path d="M345.54 592.139C345.54 593.304 344.666 594.177 343.5 594.177C342.334 594.177 341.46 593.304 341.46 592.139C341.46 590.975 342.334 590.102 343.5 590.102C344.569 590.102 345.54 590.975 345.54 592.139Z" fill="white"/>
<path d="M362.929 592.139C362.929 593.304 362.055 594.177 360.889 594.177C359.723 594.177 358.849 593.304 358.849 592.139C358.849 590.975 359.723 590.102 360.889 590.102C362.055 590.102 362.929 590.975 362.929 592.139Z" fill="white"/>
<path d="M380.222 592.139C380.222 593.304 379.347 594.177 378.182 594.177C377.016 594.177 376.142 593.304 376.142 592.139C376.142 590.975 377.016 590.102 378.182 590.102C379.347 590.102 380.222 590.975 380.222 592.139Z" fill="white"/>
<path d="M395.571 594.177C396.698 594.177 397.611 593.265 397.611 592.139C397.611 591.014 396.698 590.102 395.571 590.102C394.444 590.102 393.531 591.014 393.531 592.139C393.531 593.265 394.444 594.177 395.571 594.177Z" fill="white"/>
<path d="M415 592.139C415 593.304 414.126 594.177 412.96 594.177C411.794 594.177 410.92 593.304 410.92 592.139C410.92 590.975 411.794 590.102 412.96 590.102C414.029 590.102 415 590.975 415 592.139Z" fill="white"/>
<path d="M276.08 606.6C276.08 607.765 275.206 608.638 274.04 608.638C272.874 608.638 272 607.765 272 606.6C272 605.436 272.874 604.562 274.04 604.562C275.206 604.562 276.08 605.436 276.08 606.6Z" fill="white"/>
<path d="M293.469 606.6C293.469 607.765 292.595 608.638 291.429 608.638C290.263 608.638 289.389 607.765 289.389 606.6C289.389 605.436 290.263 604.562 291.429 604.562C292.498 604.562 293.469 605.436 293.469 606.6Z" fill="white"/>
<path d="M310.762 606.6C310.762 607.765 309.887 608.638 308.722 608.638C307.556 608.638 306.682 607.765 306.682 606.6C306.682 605.436 307.556 604.562 308.722 604.562C309.887 604.562 310.762 605.436 310.762 606.6Z" fill="white"/>
<path d="M328.151 606.6C328.151 607.765 327.277 608.638 326.111 608.638C324.945 608.638 324.071 607.765 324.071 606.6C324.071 605.436 324.945 604.562 326.111 604.562C327.277 604.562 328.151 605.436 328.151 606.6Z" fill="white"/>
<path d="M345.54 606.6C345.54 607.765 344.666 608.638 343.5 608.638C342.334 608.638 341.46 607.765 341.46 606.6C341.46 605.436 342.334 604.562 343.5 604.562C344.569 604.562 345.54 605.436 345.54 606.6Z" fill="white"/>
<path d="M362.929 606.6C362.929 607.765 362.055 608.638 360.889 608.638C359.723 608.638 358.849 607.765 358.849 606.6C358.849 605.436 359.723 604.562 360.889 604.562C362.055 604.562 362.929 605.436 362.929 606.6Z" fill="white"/>
<path d="M380.222 606.6C380.222 607.765 379.347 608.638 378.182 608.638C377.016 608.638 376.142 607.765 376.142 606.6C376.142 605.436 377.016 604.562 378.182 604.562C379.347 604.562 380.222 605.436 380.222 606.6Z" fill="white"/>
<path d="M397.611 606.6C397.611 607.765 396.737 608.638 395.571 608.638C394.405 608.638 393.531 607.765 393.531 606.6C393.531 605.436 394.405 604.562 395.571 604.562C396.737 604.562 397.611 605.436 397.611 606.6Z" fill="white"/>
<path d="M415 606.6C415 607.765 414.126 608.638 412.96 608.638C411.794 608.638 410.92 607.765 410.92 606.6C410.92 605.436 411.794 604.562 412.96 604.562C414.029 604.562 415 605.436 415 606.6Z" fill="white"/>
<path d="M276.08 620.962C276.08 622.126 275.206 623 274.04 623C272.874 623 272 622.126 272 620.962C272 619.797 272.874 618.924 274.04 618.924C275.206 618.924 276.08 619.894 276.08 620.962Z" fill="white"/>
<path d="M293.469 620.962C293.469 622.126 292.595 623 291.429 623C290.263 623 289.389 622.126 289.389 620.962C289.389 619.797 290.263 618.924 291.429 618.924C292.498 618.924 293.469 619.894 293.469 620.962Z" fill="white"/>
<path d="M310.762 620.962C310.762 622.126 309.887 623 308.722 623C307.556 623 306.682 622.126 306.682 620.962C306.682 619.797 307.556 618.924 308.722 618.924C309.887 618.924 310.762 619.894 310.762 620.962Z" fill="white"/>
<path d="M328.151 620.962C328.151 622.126 327.277 623 326.111 623C324.945 623 324.071 622.126 324.071 620.962C324.071 619.797 324.945 618.924 326.111 618.924C327.277 618.924 328.151 619.894 328.151 620.962Z" fill="white"/>
<path d="M345.54 620.962C345.54 622.126 344.666 623 343.5 623C342.334 623 341.46 622.126 341.46 620.962C341.46 619.797 342.334 618.924 343.5 618.924C344.569 618.924 345.54 619.894 345.54 620.962Z" fill="white"/>
<path d="M362.929 620.962C362.929 622.126 362.055 623 360.889 623C359.723 623 358.849 622.126 358.849 620.962C358.849 619.797 359.723 618.924 360.889 618.924C362.055 618.924 362.929 619.894 362.929 620.962Z" fill="white"/>
<path d="M380.222 620.962C380.222 622.126 379.347 623 378.182 623C377.016 623 376.142 622.126 376.142 620.962C376.142 619.797 377.016 618.924 378.182 618.924C379.347 618.924 380.222 619.894 380.222 620.962Z" fill="white"/>
<path d="M397.611 620.962C397.611 622.126 396.737 623 395.571 623C394.405 623 393.531 622.126 393.531 620.962C393.531 619.797 394.405 618.924 395.571 618.924C396.737 618.924 397.611 619.894 397.611 620.962Z" fill="white"/>
<path d="M415 620.962C415 622.126 414.126 623 412.96 623C411.794 623 410.92 622.126 410.92 620.962C410.92 619.797 411.794 618.924 412.96 618.924C414.029 618.924 415 619.894 415 620.962Z" fill="white"/>
</g>
<g opacity="0.6">
<path d="M1177.73 141.89C1188.33 141.89 1196.96 133.165 1196.96 122.453C1196.96 111.742 1188.33 103.017 1177.73 103.017L1177.73 141.89Z" fill="white"/>
<path d="M1147.73 141.89C1158.33 141.89 1166.96 133.165 1166.96 122.453C1166.96 111.742 1158.33 103.017 1147.73 103.017L1147.73 141.89Z" fill="white"/>
<path d="M1117.73 141.89C1128.33 141.89 1136.96 133.165 1136.96 122.453C1136.96 111.742 1128.33 103.017 1117.73 103.017L1117.73 141.89Z" fill="white"/>
</g>
<g opacity="0.6" clip-path="url(#clip2_2507_508)">
<path d="M76.5498 0C36.4434 0 4 32.4434 4 72.5498C4 112.557 36.4434 145.1 76.5498 145.1C116.557 145.1 149.1 112.656 149.1 72.5498C149 32.4434 116.557 0 76.5498 0ZM76.5498 140.422C39.0309 140.422 8.67742 110.069 8.67742 72.5498C8.67742 35.0309 39.0309 4.67742 76.5498 4.67742C114.069 4.67742 144.422 35.0309 144.422 72.5498C144.422 109.969 113.969 140.422 76.5498 140.422Z" fill="white"/>
<path d="M76.5498 15.625C45.2011 15.625 19.7241 41.102 19.7241 72.4507C19.7241 103.799 45.2011 129.276 76.5498 129.276C107.898 129.276 133.375 103.899 133.375 72.5502C133.375 41.102 107.898 15.625 76.5498 15.625ZM76.5498 120.618C49.9781 120.618 28.3823 99.0224 28.3823 72.4507C28.3823 45.8789 49.9781 24.2832 76.5498 24.2832C103.122 24.2832 124.717 45.8789 124.717 72.4507C124.717 99.0224 103.122 120.618 76.5498 120.618Z" fill="white"/>
<path d="M76.5503 40.6035C58.9353 40.6035 44.6045 54.9343 44.6045 72.5493C44.6045 90.1642 58.8358 104.495 76.5503 104.495C94.1652 104.495 108.496 90.1642 108.496 72.5493C108.397 54.9343 94.1652 40.6035 76.5503 40.6035ZM76.5503 89.6666C67.0959 89.6666 59.4329 82.0036 59.4329 72.5493C59.4329 63.0949 67.0959 55.4319 76.5503 55.4319C86.0046 55.4319 93.6676 63.0949 93.6676 72.5493C93.6676 82.0036 86.0046 89.6666 76.5503 89.6666Z" fill="white"/>
</g>
</g>
<defs>
<filter id="filter0_d_2507_508" x="0" y="0" width="1730" height="631" filterUnits="userSpaceOnUse" color-interpolation-filters="sRGB">
<feFlood flood-opacity="0" result="BackgroundImageFix"/>
<feColorMatrix in="SourceAlpha" type="matrix" values="0 0 0 0 0 0 0 0 0 0 0 0 0 0 0 0 0 0 127 0" result="hardAlpha"/>
<feOffset dy="4"/>
<feGaussianBlur stdDeviation="2"/>
<feComposite in2="hardAlpha" operator="out"/>
<feColorMatrix type="matrix" values="0 0 0 0 0 0 0 0 0 0 0 0 0 0 0 0 0 0 0.25 0"/>
<feBlend mode="normal" in2="BackgroundImageFix" result="effect1_dropShadow_2507_508"/>
<feBlend mode="normal" in="SourceGraphic" in2="effect1_dropShadow_2507_508" result="shape"/>
</filter>
<clipPath id="clip0_2507_508">
<rect width="258" height="258" fill="white" transform="translate(1468 41)"/>
</clipPath>
<clipPath id="clip1_2507_508">
<rect width="143" height="105" fill="white" transform="translate(272 518)"/>
</clipPath>
<clipPath id="clip2_2507_508">
<rect width="145" height="145" fill="white" transform="translate(4)"/>
</clipPath>
</defs>
</svg>
